<svg xmlns="http://www.w3.org/2000/svg" width="464.544" height="153.09" viewBox="0 0 464.544 153.09">
  <g id="GH_Logo_quer_blau" transform="translate(0 0)">
    <path id="Pfad_650" data-name="Pfad 650" d="M153.09,76.545A76.563,76.563,0,0,0,76.545,0,78.6,78.6,0,0,0,65.481.772c.643,1.029,1.286,2.058,1.8,3.088,2.444,4.76.386,5.918-2.573,9.52-5.789,7.2-8.877,16.209-11.064,25.086-3.216,12.993-4.374,26.373-4.889,39.623-.257,6.818-1.8,14.923,2.187,20.583A237.311,237.311,0,0,1,70.37,75.516c2.959-3.088,7.2-8.1,11.964-7.719,13.379,1.029,21.87,18.4,26.759,28.817,4.5,9.391,6.69,22.127,13.251,30.1a32.97,32.97,0,0,0,6.175,5.789A76.033,76.033,0,0,0,153.09,76.545ZM46.57,6.046A76.581,76.581,0,1,0,116.425,141.9C106,131.22,99.7,115.268,94.169,102.146c-1.286-2.959-4.631-16.21-10.806-14.666-3.988,1.029-7.719,6.947-10.163,9.906-6.561,7.719-12.736,15.824-18.654,24.057-5.789,3.731-10.292-.772-13.508-5.66C29.846,98.543,33.577,74.615,36.15,55.575a310.563,310.563,0,0,1,7.719-40.4c.772-2.959,1.672-6.046,2.7-9.134Z" transform="translate(0 0)" fill="#76aad5"/>
    <path id="Pfad_651" data-name="Pfad 651" d="M161.657,53.517H144.418V31.261H137.6V83.749h6.818V59.306h17.239V83.749h6.818V31.261h-6.818V53.517Zm40.781,1.93a20.726,20.726,0,0,0-2.573-6.69,12.549,12.549,0,0,0-4.374-4.245,12.224,12.224,0,0,0-6.175-1.544,11.893,11.893,0,0,0-6.175,1.544,12.548,12.548,0,0,0-4.374,4.245,22.681,22.681,0,0,0-2.573,6.69,43.371,43.371,0,0,0-.772,8.491,43.371,43.371,0,0,0,.772,8.491,18.915,18.915,0,0,0,2.573,6.561,12.548,12.548,0,0,0,4.374,4.245,13.122,13.122,0,0,0,12.35,0,12.549,12.549,0,0,0,4.374-4.245,21.833,21.833,0,0,0,2.573-6.561,43.37,43.37,0,0,0,.772-8.491,35.333,35.333,0,0,0-.772-8.491Zm-6.3,14.537a21.5,21.5,0,0,1-1.158,4.76,7.9,7.9,0,0,1-2.187,3.088,4.941,4.941,0,0,1-3.216,1.158,5.039,5.039,0,0,1-3.345-1.158,7.9,7.9,0,0,1-2.187-3.088,15.005,15.005,0,0,1-1.286-4.76,47.555,47.555,0,0,1,0-12.093,16.028,16.028,0,0,1,1.286-4.76,9.474,9.474,0,0,1,2.187-3.088,4.81,4.81,0,0,1,3.345-1.158,4.7,4.7,0,0,1,3.216,1.158,7.9,7.9,0,0,1,2.187,3.088,21.5,21.5,0,0,1,1.158,4.76,47.56,47.56,0,0,1,0,12.093Zm18.011-41.553c-1.93,2.316-2.83,5.66-2.83,9.906V83.62h6.561V49.529h10.292v-5.66H217.876V38.337a21.35,21.35,0,0,1,.257-3.088,7.551,7.551,0,0,1,.772-2.573,4.543,4.543,0,0,1,1.8-1.672,6.133,6.133,0,0,1,2.83-.643,14.248,14.248,0,0,1,2.444.257,6.333,6.333,0,0,1,2.187.772l1.415-5.146c-.772-.386-1.672-.643-2.7-1.029a17.505,17.505,0,0,0-3.859-.515c-3.988.257-6.947,1.415-8.877,3.731ZM252.1,44c-.643,1.158-1.415,2.444-2.316,3.988-.9,1.415-1.8,2.959-2.83,4.5l-3.087,4.631c-1.029,1.544-2.058,2.83-2.959,4.117V24.957l-6.561,1.158V83.749H240.9V64.195a28.871,28.871,0,0,1,3.088,3.988c1.158,1.544,2.187,3.216,3.345,5.017s2.187,3.473,3.216,5.4c1.029,1.8,1.93,3.6,2.7,5.275h7.076a50.119,50.119,0,0,0-2.573-5.4c-1.029-1.93-2.058-3.731-3.216-5.66s-2.316-3.731-3.6-5.532a51.187,51.187,0,0,0-3.731-4.76Q250.1,58.663,253,54.031c1.93-2.959,3.988-6.3,6.046-9.906H252.1Zm21.227,0h-6.561V83.749h6.561V44Zm-.257-8.233a4.261,4.261,0,0,0,1.286-3.088,3.814,3.814,0,0,0-1.286-3.088,4.36,4.36,0,0,0-5.918,0,4.261,4.261,0,0,0-1.286,3.088,3.814,3.814,0,0,0,1.286,3.088,4.36,4.36,0,0,0,5.918,0Zm30.489,8.491a13.782,13.782,0,0,0-3.473-.772,33.9,33.9,0,0,0-3.6-.257,24.178,24.178,0,0,0-6.3.772,22.774,22.774,0,0,0-5.017,1.8V83.878h6.561V49.786a14.267,14.267,0,0,1,5.275-1.029,13.948,13.948,0,0,1,5.4,1.029l1.158-5.532Zm20.712,39.752a12.5,12.5,0,0,0,3.216-1.544l-1.415-5.017a15.625,15.625,0,0,1-2.573,1.158,10.966,10.966,0,0,1-2.959.386,6.386,6.386,0,0,1-3.988-1.158,7.284,7.284,0,0,1-2.444-3.088,15,15,0,0,1-1.286-4.76,43.447,43.447,0,0,1-.386-6.046q0-7.719,1.93-11.578a6.489,6.489,0,0,1,6.046-3.731,9.7,9.7,0,0,1,5.275,1.544l1.672-5.4a24.292,24.292,0,0,0-3.216-1.415,12.505,12.505,0,0,0-3.988-.515c-4.889,0-8.491,1.8-10.935,5.532s-3.6,8.877-3.6,15.438a40.709,40.709,0,0,0,.772,8.233,18.845,18.845,0,0,0,2.444,6.561,12.932,12.932,0,0,0,4.374,4.374,13.708,13.708,0,0,0,6.818,1.544,7.944,7.944,0,0,0,4.245-.515Zm15.309-.257V49.657a18.216,18.216,0,0,1,4.888-.772c2.83,0,4.631.9,5.661,2.7s1.544,4.76,1.544,8.619V83.749h6.561V59.692a28.379,28.379,0,0,0-.9-7.976,14.8,14.8,0,0,0-2.573-5.146,8.15,8.15,0,0,0-3.859-2.7,14.208,14.208,0,0,0-4.76-.772,31.542,31.542,0,0,0-3.473.257q-1.737.386-3.088.772v-19.3l-6.561,1.158V83.62h6.561ZM391.42,65.867c0-.643.129-1.158.129-1.8V62.394c0-6.175-.9-10.806-2.83-14.28-1.93-3.345-5.017-5.017-9.52-5.017a11.4,11.4,0,0,0-9.648,5.017c-2.444,3.345-3.6,8.748-3.6,16.081a42.033,42.033,0,0,0,.772,8.362,18.914,18.914,0,0,0,2.573,6.561,12.269,12.269,0,0,0,4.631,4.245,14.578,14.578,0,0,0,6.947,1.544,17.952,17.952,0,0,0,5.532-.772,18.339,18.339,0,0,0,3.345-1.415l-1.158-5.275q-.772.386-2.7,1.158a13.807,13.807,0,0,1-4.117.643,8.793,8.793,0,0,1-4.374-1.029,6.823,6.823,0,0,1-2.7-2.7,12.952,12.952,0,0,1-1.415-4.117,31.868,31.868,0,0,1-.515-5.275H391.42Zm-7.976-14.151a26.611,26.611,0,0,1,1.158,8.748H372.509a25.46,25.46,0,0,1,1.8-8.748,4.928,4.928,0,0,1,4.76-3.216,4.4,4.4,0,0,1,4.374,3.216Zm16.081,32.033h6.561V49.657a18.216,18.216,0,0,1,4.889-.772c2.83,0,4.631.9,5.66,2.7s1.544,4.76,1.544,8.619V83.749h6.561V59.692a28.378,28.378,0,0,0-.9-7.976,12.978,12.978,0,0,0-2.7-5.146,9.588,9.588,0,0,0-4.117-2.7,18.284,18.284,0,0,0-5.4-.772,34.863,34.863,0,0,0-6.046.515,60.231,60.231,0,0,0-6.046,1.415V83.749Z" transform="translate(39.418 -5.361)" fill="#3c3c3b"/>
    <path id="Pfad_652" data-name="Pfad 652" d="M151.38,98.7l-6.175-16.467h-2.83L136.2,98.7h2.83l1.544-4.5h6.3l1.672,4.5Zm-10.034-6.947,1.415-4.245c.386-1.029.643-2.058.9-2.959a6.827,6.827,0,0,1,.386,1.415c.257.643.386,1.158.515,1.415l1.544,4.5h-4.76Zm30.361-9.391h-2.444v8.619a21.048,21.048,0,0,0,.129,2.573c0,1.029.129,1.672.129,1.93h-.129l-7.976-12.993H158.2V98.7h2.444V90.2c0-1.158,0-2.444-.129-3.859v-.772h.129l7.976,12.993h3.216V82.357ZM202.2,84.416a8.219,8.219,0,0,0-6.046-2.058h-5.017V98.7h4.631c2.83,0,5.017-.772,6.432-2.187,1.544-1.415,2.187-3.473,2.187-6.175,0-2.573-.643-4.5-2.187-5.918ZM195.635,96.38h-1.8V84.544h2.316c3.6,0,5.532,1.93,5.532,5.918-.129,3.988-2.058,5.918-6.046,5.918Zm26.115,0h-6.561V91.234h6.175V89.047h-6.175v-4.5h6.561V82.229h-9.263V98.7h9.263V96.38Zm10.806-11.836h1.8a4.9,4.9,0,0,1,2.7.643,2.031,2.031,0,0,1,.9,1.93,2.4,2.4,0,0,1-.9,2.058,3.809,3.809,0,0,1-2.7.643h-1.8V84.544Zm2.573,7.59,3.859,6.561h3.087l-4.631-7.2c2.058-.9,3.216-2.316,3.216-4.374a4.317,4.317,0,0,0-1.544-3.6,7.678,7.678,0,0,0-4.631-1.158h-4.631V98.7h2.7V92.134Zm30.1-7.59h4.76V82.229h-12.35v2.316h4.76V98.7h2.7V84.544Zm14.537,0h1.8a4.9,4.9,0,0,1,2.7.643,2.031,2.031,0,0,1,.9,1.93,2.4,2.4,0,0,1-.9,2.058,3.809,3.809,0,0,1-2.7.643h-1.8V84.544Zm2.7,7.59,3.859,6.561h3.088l-4.631-7.2c2.058-.9,3.216-2.316,3.216-4.374a4.318,4.318,0,0,0-1.544-3.6,7.678,7.678,0,0,0-4.631-1.158H277.2V98.7h2.7V92.134ZM309.359,98.7l-6.175-16.467h-2.959L294.178,98.7h2.83l1.544-4.5h6.3l1.672,4.5Zm-9.906-6.947,1.415-4.245c.386-1.029.643-2.058.9-2.959a6.822,6.822,0,0,1,.386,1.415c.257.643.386,1.158.515,1.415l1.544,4.5h-4.76Zm22.256-7.2h4.76V82.229h-12.35v2.316h4.76V98.7h2.7V84.544Zm17.625,0h4.76V82.229h-12.35v2.316h4.76V98.7h2.7V84.544Zm25.472-2.187h-2.444v8.619a21.045,21.045,0,0,0,.129,2.573c0,1.029.129,1.672.129,1.93h-.257l-7.976-12.993h-3.216V98.7h2.444V90.2c0-1.158,0-2.444-.129-3.859v-.772h.129l7.976,12.993h3.216V82.357ZM386.675,98.7,380.5,82.229h-2.959L371.495,98.7h2.83l1.544-4.5h6.3l1.672,4.5Zm-9.906-6.947,1.415-4.245c.386-1.029.643-2.058.9-2.959a6.822,6.822,0,0,1,.386,1.415c.257.643.386,1.158.515,1.415l1.544,4.5h-4.76Zm25.472-7.076c.643.257,1.158.386,1.8.643l.9-2.187a11.1,11.1,0,0,0-4.631-1.029,8.487,8.487,0,0,0-4.117,1.029,6.725,6.725,0,0,0-2.7,2.959,9.707,9.707,0,0,0-.9,4.5q0,4.052,1.93,6.175a7.068,7.068,0,0,0,5.532,2.187,11.54,11.54,0,0,0,4.374-.772V95.865a12.043,12.043,0,0,1-2.058.515,10,10,0,0,1-2.058.257,4.759,4.759,0,0,1-3.731-1.544,6.714,6.714,0,0,1-1.286-4.5,6.714,6.714,0,0,1,1.286-4.5,4.588,4.588,0,0,1,3.6-1.672,4.713,4.713,0,0,1,2.058.257ZM425.4,82.357h-2.7v6.69h-7.59v-6.69h-2.573V98.7h2.7V91.363h7.59V98.7h2.7V82.357Z" transform="translate(39.017 9.184)" fill="#3c3c3b"/>
    <path id="Pfad_656" data-name="Pfad 656" d="M153.09,76.545A76.563,76.563,0,0,0,76.545,0,78.6,78.6,0,0,0,65.481.772c.643,1.029,1.286,2.058,1.8,3.088,2.444,4.76.386,5.918-2.573,9.52-5.789,7.2-8.877,16.209-11.064,25.086-3.216,12.993-4.374,26.373-4.889,39.623-.257,6.818-1.8,14.923,2.187,20.583A237.311,237.311,0,0,1,70.37,75.516c2.959-3.088,7.2-8.1,11.964-7.719,13.379,1.029,21.87,18.4,26.759,28.817,4.5,9.391,6.69,22.127,13.251,30.1a32.97,32.97,0,0,0,6.175,5.789A76.033,76.033,0,0,0,153.09,76.545ZM46.57,6.046A76.581,76.581,0,1,0,116.425,141.9C106,131.22,99.7,115.268,94.169,102.146c-1.286-2.959-4.631-16.21-10.806-14.666-3.988,1.029-7.719,6.947-10.163,9.906-6.561,7.719-12.736,15.824-18.654,24.057-5.789,3.731-10.292-.772-13.508-5.66C29.846,98.543,33.577,74.615,36.15,55.575a310.563,310.563,0,0,1,7.719-40.4c.772-2.959,1.672-6.046,2.7-9.134Z" transform="translate(0 0)" fill="#76aad5"/>
  </g>
</svg>
