<svg width="148" height="69" viewBox="0 0 148 69" fill="none" xmlns="http://www.w3.org/2000/svg">
<path d="M14.1836 6.23663e-09C15.4695 0.000133644 17.0486 3.21594 22.137 4.28788C26.7758 4.90511 31.031 7.55517 32.7416 14.472C33.2718 16.616 32.8372 23.568 32.7416 24.1199C32.63 25.1919 32.7416 26.8 30.6207 32.696C27.4285 39.8724 27.4393 39.8583 26.909 41.272C26.3788 42.6857 26.2703 48.2504 26.2703 48.2504C26.2703 48.2504 29.03 49.312 29.03 50.384C29.03 51.456 26.909 52.528 26.909 52.528C26.909 52.528 30.6207 56.28 30.6207 57.888C30.6207 59.496 29.5603 60.032 29.5603 60.032L30.6207 61.1041V64.32C30.6207 67 21.0765 67 15.244 67C10.2475 67 1.98825 67 1.98825 64.5546V61.1041L3.04879 60.032C3.04879 60.032 1.98825 59.496 1.98825 57.888C1.98825 56.28 5.69991 52.528 5.69991 52.528C5.69991 52.528 3.55369 51.3544 3.57899 50.384C3.60432 49.4136 5.65224 48.24 5.65224 48.24C3.82881 45.5293 3.37096 45.6844 4.85337 39.128C6.32836 32.6044 12.9371 25.7279 13.1231 24.1199C13.1231 23.8502 13.3428 22.198 12.5929 21.44C11.843 20.6819 11.0022 20.368 9.94176 20.904C8.8813 21.44 5.97323 23.7465 4.63938 24.1199C3.30554 24.4934 3.04882 24.6559 2.51859 24.1199C1.98836 23.5839 1.98825 21.9759 1.98825 21.9759C1.98825 21.9759 0.927894 21.44 0.397664 20.904C-0.132555 20.368 -0.132555 17.6879 0.397664 17.1519C0.927894 16.6159 10.472 9.11201 10.472 9.11201C10.472 9.11201 9.82675 8.4089 10.472 7.50397C11.1172 6.59903 15.244 5.89592 15.244 5.89592C15.244 5.89592 12.5325 2.14395 12.5929 1.07193C12.6231 0.536802 13.5558 -6.68129e-05 14.1836 6.23663e-09Z" fill="black"/>
<path d="M55.3687 14.8421C53.4299 14.8793 50.8775 16.062 49.0188 17.3734C47.7478 18.2702 46.8773 19.4131 45.9468 20.8737C45.5206 21.5426 45.1356 22.7008 44.9607 23.5291C44.8657 23.9785 44.8415 24.4476 44.782 24.9068C44.7968 25.3581 44.7743 25.8139 44.8262 26.2607C45.0534 28.226 45.9076 29.886 46.9516 31.3047C47.7077 32.3322 49.4934 34.672 49.8284 35.0727C50.5222 35.9029 50.9735 37.6013 50.8302 38.2477C50.2479 40.8744 48.0223 41.6568 44.7357 42.5747C41.449 43.4926 40.324 43.1275 38.5173 44.3439C36.7106 45.5603 39.1683 47.7472 40.7363 46.4372C42.3044 45.1272 44.6509 45.0512 46.6778 44.3885C48.8394 43.585 51.3284 42.9495 52.8082 40.5957C53.1387 40.07 53.5769 39.5801 53.5016 37.9108C53.4263 36.2414 52.8779 35.1985 50.7812 32.8136C48.6844 30.4286 47.0211 28.8127 46.8812 26.3254C46.9312 25.8824 46.9461 25.4305 47.0313 24.9963C47.191 24.1813 47.57 23.1058 47.9511 22.425C48.7659 20.9697 49.9405 20.1183 51.2203 19.4769C51.7889 19.2328 52.3504 18.9597 52.9262 18.7445C54.3522 18.2113 55.6093 17.9571 57.0658 17.5929C58.9133 17.1309 57.3075 14.8049 55.3687 14.8421Z" fill="black"/>
<path d="M68.8141 20.4137C67.5641 19.2191 67.6503 17.4947 68.5992 17.0392C69.5482 16.5838 71.3998 17.4691 72.3605 18.3932C74.9787 20.9115 75.5375 24.9172 76.4517 28.4982C77.6313 33.1183 78.9702 41.4749 80.0811 42.3349C82.0497 43.859 84.6653 35.5958 85.9114 31.7713C87.3298 27.4178 87.5236 23.4444 89.7812 19.9783C90.5693 18.7684 90.975 17.7555 92.9993 17.0803C94.2048 16.6782 96.2983 16.6858 96.726 17.8835C97.1773 19.1475 96.7334 19.0333 94.2204 21.0343C90.9347 23.6515 90.2727 26.9349 88.3625 32.1968C86.7242 36.71 85.1138 40.2984 81.9617 45.0992C78.8097 49.9001 78.3318 43.4348 77.8045 41.7735C77.3456 40.3277 75.2369 29.9139 72.3605 24.6676C71.4729 23.0485 70.7329 22.2476 68.8141 20.4137Z" fill="black"/>
<path d="M39.1718 66.6833V55.047H40.5809V60.2288H46.7854V55.047H48.1945V66.6833H46.7854V61.4788H40.5809V66.6833H39.1718ZM54.3792 66.8652C53.5913 66.8652 52.9 66.6777 52.3053 66.3027C51.7144 65.9277 51.2523 65.403 50.9189 64.7288C50.5894 64.0546 50.4246 63.2667 50.4246 62.3652C50.4246 61.4561 50.5894 60.6625 50.9189 59.9845C51.2523 59.3065 51.7144 58.7799 52.3053 58.4049C52.9 58.0299 53.5913 57.8424 54.3792 57.8424C55.1671 57.8424 55.8564 58.0299 56.4474 58.4049C57.0421 58.7799 57.5042 59.3065 57.8337 59.9845C58.1671 60.6625 58.3337 61.4561 58.3337 62.3652C58.3337 63.2667 58.1671 64.0546 57.8337 64.7288C57.5042 65.403 57.0421 65.9277 56.4474 66.3027C55.8564 66.6777 55.1671 66.8652 54.3792 66.8652ZM54.3792 65.6606C54.9777 65.6606 55.4701 65.5072 55.8564 65.2004C56.2428 64.8936 56.5288 64.4902 56.7144 63.9902C56.9 63.4902 56.9928 62.9485 56.9928 62.3652C56.9928 61.7818 56.9 61.2383 56.7144 60.7345C56.5288 60.2307 56.2428 59.8235 55.8564 59.5129C55.4701 59.2023 54.9777 59.047 54.3792 59.047C53.7807 59.047 53.2883 59.2023 52.9019 59.5129C52.5155 59.8235 52.2296 60.2307 52.0439 60.7345C51.8583 61.2383 51.7655 61.7818 51.7655 62.3652C51.7655 62.9485 51.8583 63.4902 52.0439 63.9902C52.2296 64.4902 52.5155 64.8936 52.9019 65.2004C53.2883 65.5072 53.7807 65.6606 54.3792 65.6606ZM64.267 57.9561V59.0924H59.5624V57.9561H64.267ZM60.9715 66.6833V56.7515C60.9715 56.2515 61.0889 55.8349 61.3238 55.5015C61.5586 55.1682 61.8635 54.9182 62.2385 54.7515C62.6135 54.5849 63.0094 54.5015 63.426 54.5015C63.7556 54.5015 64.0245 54.528 64.2329 54.5811C64.4412 54.6341 64.5965 54.6833 64.6988 54.7288L64.3124 55.8879C64.2442 55.8652 64.1495 55.8368 64.0283 55.8027C63.9109 55.7686 63.7556 55.7515 63.5624 55.7515C63.1192 55.7515 62.7992 55.8633 62.6022 56.0868C62.409 56.3102 62.3124 56.6379 62.3124 57.0697V66.6833H60.9715ZM67.3962 63.5015L67.3735 61.8424H67.6462L71.4644 57.9561H73.1235L69.0553 62.0697H68.9417L67.3962 63.5015ZM66.1462 66.6833V55.047H67.4871V66.6833H66.1462ZM71.6917 66.6833L68.2826 62.3652L69.2371 61.4333L73.3962 66.6833H71.6917ZM74.8493 66.6833V57.9561H76.1903V66.6833H74.8493ZM75.5312 56.5015C75.2698 56.5015 75.0444 56.4125 74.855 56.2345C74.6694 56.0565 74.5766 55.8424 74.5766 55.5924C74.5766 55.3424 74.6694 55.1284 74.855 54.9504C75.0444 54.7724 75.2698 54.6833 75.5312 54.6833C75.7925 54.6833 76.016 54.7724 76.2016 54.9504C76.391 55.1284 76.4857 55.3424 76.4857 55.5924C76.4857 55.8424 76.391 56.0565 76.2016 56.2345C76.016 56.4125 75.7925 56.5015 75.5312 56.5015ZM78.6462 66.6833V57.9561H79.9417V59.2743H80.0326C80.1917 58.8424 80.4796 58.4921 80.8962 58.2231C81.3129 57.9542 81.7826 57.8197 82.3053 57.8197C82.4038 57.8197 82.5269 57.8216 82.6746 57.8254C82.8224 57.8292 82.9341 57.8349 83.0099 57.8424V59.2061C82.9644 59.1947 82.8602 59.1777 82.6974 59.1549C82.5383 59.1284 82.3697 59.1152 82.1917 59.1152C81.7674 59.1152 81.3886 59.2042 81.0553 59.3822C80.7258 59.5565 80.4644 59.7989 80.2712 60.1095C80.0818 60.4163 79.9871 60.7667 79.9871 61.1606V66.6833H78.6462ZM87.8792 66.8652C87.061 66.8652 86.3564 66.672 85.7655 66.2856C85.1746 65.8993 84.7201 65.3671 84.4019 64.689C84.0837 64.011 83.9246 63.2364 83.9246 62.3652C83.9246 61.4788 84.0875 60.6966 84.4133 60.0186C84.7428 59.3368 85.2011 58.8046 85.7883 58.422C86.3792 58.0356 87.0686 57.8424 87.8564 57.8424C88.4701 57.8424 89.0231 57.9561 89.5155 58.1833C90.008 58.4106 90.4114 58.7288 90.7258 59.1379C91.0402 59.547 91.2352 60.0243 91.311 60.5697H89.9701C89.8678 60.172 89.6405 59.8197 89.2883 59.5129C88.9398 59.2023 88.4701 59.047 87.8792 59.047C87.3564 59.047 86.8981 59.1833 86.5042 59.4561C86.114 59.725 85.8091 60.1057 85.5894 60.5981C85.3735 61.0868 85.2655 61.6606 85.2655 62.3197C85.2655 62.994 85.3716 63.5811 85.5837 64.0811C85.7996 64.5811 86.1027 64.9693 86.4928 65.2458C86.8867 65.5224 87.3489 65.6606 87.8792 65.6606C88.2277 65.6606 88.5439 65.6 88.828 65.4788C89.1121 65.3576 89.3527 65.1833 89.5496 64.9561C89.7466 64.7288 89.8867 64.4561 89.9701 64.1379H91.311C91.2352 64.653 91.0477 65.1171 90.7485 65.5299C90.453 65.939 90.061 66.2648 89.5724 66.5072C89.0875 66.7458 88.5231 66.8652 87.8792 66.8652ZM94.6121 61.4333V66.6833H93.2712V55.047H94.6121V59.3197H94.7258C94.9303 58.869 95.2371 58.511 95.6462 58.2458C96.0591 57.9769 96.6083 57.8424 97.2939 57.8424C97.8886 57.8424 98.4095 57.9618 98.8564 58.2004C99.3034 58.4352 99.65 58.797 99.8962 59.2856C100.146 59.7705 100.271 60.3879 100.271 61.1379V66.6833H98.9303V61.2288C98.9303 60.5356 98.7504 59.9996 98.3905 59.6208C98.0345 59.2383 97.5402 59.047 96.9076 59.047C96.4682 59.047 96.0742 59.1398 95.7258 59.3254C95.3811 59.511 95.1083 59.7818 94.9076 60.1379C94.7106 60.494 94.6121 60.9258 94.6121 61.4333ZM106.383 66.8652C105.543 66.8652 104.817 66.6796 104.207 66.3083C103.601 65.9333 103.133 65.4106 102.804 64.7402C102.478 64.0659 102.315 63.2818 102.315 62.3879C102.315 61.494 102.478 60.7061 102.804 60.0243C103.133 59.3387 103.592 58.8046 104.179 58.422C104.77 58.0356 105.459 57.8424 106.247 57.8424C106.702 57.8424 107.15 57.9182 107.594 58.0697C108.037 58.2212 108.44 58.4674 108.804 58.8083C109.168 59.1455 109.457 59.5924 109.673 60.1493C109.889 60.7061 109.997 61.3917 109.997 62.2061V62.7743H103.27V61.6152H108.633C108.633 61.1227 108.535 60.6833 108.338 60.297C108.145 59.9106 107.868 59.6057 107.508 59.3822C107.152 59.1587 106.732 59.047 106.247 59.047C105.713 59.047 105.251 59.1796 104.861 59.4447C104.474 59.7061 104.177 60.047 103.969 60.4674C103.76 60.8879 103.656 61.3387 103.656 61.8197V62.5924C103.656 63.2515 103.77 63.8102 103.997 64.2686C104.228 64.7231 104.548 65.0697 104.957 65.3083C105.366 65.5432 105.842 65.6606 106.383 65.6606C106.736 65.6606 107.054 65.6114 107.338 65.5129C107.626 65.4106 107.874 65.2591 108.082 65.0583C108.291 64.8538 108.452 64.6 108.565 64.297L109.861 64.6606C109.724 65.1 109.495 65.4864 109.173 65.8197C108.851 66.1493 108.454 66.4068 107.98 66.5924C107.507 66.7743 106.974 66.8652 106.383 66.8652ZM113.378 61.4333V66.6833H112.037V57.9561H113.332V59.3197H113.446C113.65 58.8765 113.961 58.5205 114.378 58.2515C114.794 57.9788 115.332 57.8424 115.991 57.8424C116.582 57.8424 117.099 57.9637 117.543 58.2061C117.986 58.4447 118.33 58.8083 118.577 59.297C118.823 59.7818 118.946 60.3955 118.946 61.1379V66.6833H117.605V61.2288C117.605 60.5432 117.427 60.0091 117.071 59.6265C116.715 59.2402 116.226 59.047 115.605 59.047C115.177 59.047 114.794 59.1398 114.457 59.3254C114.124 59.511 113.861 59.7818 113.668 60.1379C113.474 60.494 113.378 60.9258 113.378 61.4333ZM130.01 54.5015L126.26 68.4333H125.033L128.783 54.5015H130.01ZM131.145 56.297V55.047H139.872V56.297H136.213V66.6833H134.804V56.297H131.145ZM140.959 66.6833V57.9561H142.254V59.2743H142.345C142.504 58.8424 142.792 58.4921 143.209 58.2231C143.625 57.9542 144.095 57.8197 144.618 57.8197C144.716 57.8197 144.839 57.8216 144.987 57.8254C145.135 57.8292 145.247 57.8349 145.322 57.8424V59.2061C145.277 59.1947 145.173 59.1777 145.01 59.1549C144.851 59.1284 144.682 59.1152 144.504 59.1152C144.08 59.1152 143.701 59.2042 143.368 59.3822C143.038 59.5565 142.777 59.7989 142.584 60.1095C142.394 60.4163 142.3 60.7667 142.3 61.1606V66.6833H140.959ZM146.889 66.7743C146.609 66.7743 146.368 66.6739 146.168 66.4731C145.967 66.2724 145.866 66.0318 145.866 65.7515C145.866 65.4712 145.967 65.2307 146.168 65.0299C146.368 64.8292 146.609 64.7288 146.889 64.7288C147.169 64.7288 147.41 64.8292 147.611 65.0299C147.811 65.2307 147.912 65.4712 147.912 65.7515C147.912 65.9371 147.864 66.1076 147.77 66.2629C147.679 66.4182 147.556 66.5432 147.4 66.6379C147.249 66.7288 147.079 66.7743 146.889 66.7743Z" fill="black"/>
</svg>
